<?xml version="1.0" encoding="utf-8"?>
<!-- Generator: Adobe Illustrator 24.2.3, SVG Export Plug-In . SVG Version: 6.00 Build 0)  -->
<svg version="1.1" id="Layer_1" xmlns="http://www.w3.org/2000/svg" xmlns:xlink="http://www.w3.org/1999/xlink" x="0px" y="0px"viewBox="0 0 150 150" style="enable-background:new 0 0 150 150;" xml:space="preserve">
	<style type="text/css">
		.broth-0{fill:#D8EBEC;}
		.broth-1{fill:#999999;}
		.broth-2{fill:#D8CAA3;}
	</style>
	<path class="broth-0" d="M35.4,38.6l7,64.9c0.7,6,5,10.6,10.3,10.6H106c4.7,0,8.7-3.6,10-8.8l12.3-50.1c0.6-2.3,0.7-4.9,0.2-7.3c-0.7-4-0.3-10.9,8.1-12.2C149,33.8,35.4,38.6,35.4,38.6z"/>
	<path class="broth-1" d="M35.4,38.6H12.5v52.6c0,4.7,3.2,8.6,7.4,8.6h1.6V47.3h14.9"/>
	<path class="broth-2" d="M38.6,71.5L42,104c0.7,6.2,5.1,10.7,10.3,10.7h53.2c4.7,0,8.7-3.6,10-8.8l8.4-34.2L38.6,71.5z"/>
</svg>
