<svg xmlns="http://www.w3.org/2000/svg" viewBox="0 0 373.59 75.11"><defs><style>.broth-1{fill:#d8ebec;}.broth-2{fill:#999;}.broth-3{fill:#d8caa3;}.broth-4,.broth-5{font-size:62.1px;font-family:Rochester-Regular, Rochester;}.broth-4{fill:#8a6253;}.broth-5{fill:#b8836f;}</style></defs><g id="Layer_2" data-name="Layer 2"><g id="Layer_1-2" data-name="Layer 1"><path class="broth-1" d="M20.45,3l6.28,58c.59,5.44,4.54,9.51,9.22,9.51H83.58c4.15,0,7.79-3.21,8.94-7.86l11-44.8a16.73,16.73,0,0,0,.24-6.54c-.56-3.64-.3-9.69,7.25-10.87C122-1.31,20.45,3,20.45,3Z"/><path class="broth-2" d="M20.45,3H0V50c0,4.24,2.94,7.67,6.56,7.67H8v-47H21.31"/><path class="broth-3" d="M23.27,32.47l3.14,29C27,66.89,31,71,35.63,71H83.26c4.15,0,7.79-3.21,8.94-7.86l7.53-30.63Z"/><text class="broth-4" transform="translate(43.05 58.69)">4</text><text class="broth-5" transform="translate(132.62 59.1)">Cups Broth</text></g></g></svg>