<svg xmlns="http://www.w3.org/2000/svg" viewBox="0 0 314.5 121.22"><defs><style>.carotte-1{fill:#b96e16;}.carotte-2{fill:#c6d199;}.carotte-3{fill:#f7931e;}.carotte-4{fill:#f9a94b;}.carotte-5{fill:none;stroke:#f7931e;stroke-linecap:round;stroke-miterlimit:10;stroke-width:5px;}.carotte-6,.carotte-7{font-size:62.1px;font-family:Rochester-Regular, Rochester;}.carotte-6{fill:#d65a2d;}.carotte-7{fill:#fff;}</style></defs><g id="Layer_2" data-name="Layer 2"><g id="Layer_1-2" data-name="Layer 1"><path class="carotte-1" d="M114.51,65.37c4.5,13.14,4,31,3,43.14-.55,6.25-7,8.54-11.37,4C97.65,103.67,86,89.85,81.51,76.66c-7.45-21.78-16.73-38.33,3-45.09C103,25.26,107.05,43.59,114.51,65.37Z"/><ellipse class="carotte-2" cx="81.48" cy="18.51" rx="5.13" ry="19.49" transform="translate(-1.6 27.39) rotate(-18.9)"/><ellipse class="carotte-2" cx="74.39" cy="23.11" rx="5.13" ry="19.49" transform="translate(2.21 52.41) rotate(-39.35)"/><ellipse class="carotte-2" cx="89.06" cy="19.53" rx="19.49" ry="5.13" transform="translate(52.74 103.17) rotate(-78.9)"/><path class="carotte-3" d="M95.06,69.1c9.7,9.94,17,26.28,21.18,37.69,2.18,5.89-2.69,10.74-8.55,8.51-11.44-4.37-27.86-11.87-37.6-21.85C54,77,38.53,66,53.46,51.43,67.41,37.82,79,52.61,95.06,69.1Z"/><ellipse class="carotte-2" cx="45.13" cy="40.93" rx="5.13" ry="19.49" transform="translate(-15.76 43.15) rotate(-44.29)"/><ellipse class="carotte-2" cx="40.69" cy="48.13" rx="5.13" ry="19.49" transform="translate(-20.2 64.4) rotate(-64.75)"/><ellipse class="carotte-2" cx="52.41" cy="38.6" rx="5.13" ry="19.49" transform="translate(-7.91 14.13) rotate(-14.29)"/><path class="carotte-4" d="M77.1,81.78c13.33,3.9,27.68,14.58,37,22.45,4.79,4,2.92,10.67-3.27,11.6-12.12,1.81-30.11,3.34-43.49-.58-22.09-6.47-41-8.43-35.11-28.45C37.67,68.1,55,75.31,77.1,81.78Z"/><ellipse class="carotte-2" cx="19.78" cy="81.74" rx="5.13" ry="19.49" transform="translate(-64.23 77.76) rotate(-73.68)"/><ellipse class="carotte-2" cx="19.44" cy="90.19" rx="19.49" ry="5.13" transform="translate(-6.46 1.64) rotate(-4.14)"/><ellipse class="carotte-2" cx="24.98" cy="76.14" rx="5.13" ry="19.49" transform="translate(-45.67 38.33) rotate(-43.68)"/><path class="carotte-5" d="M47.13,80.88a16.37,16.37,0,0,1-9,21.85"/><text class="carotte-6" transform="translate(144.06 105.21)">Carottes</text><text class="carotte-7" transform="translate(68.6 105.21)">3</text></g></g></svg>