<?xml version="1.0" encoding="utf-8"?>
<!-- Generator: Adobe Illustrator 24.2.3, SVG Export Plug-In . SVG Version: 6.00 Build 0)  -->
<svg version="1.1" id="Layer_1" xmlns="http://www.w3.org/2000/svg" xmlns:xlink="http://www.w3.org/1999/xlink" x="0px" y="0px"viewBox="0 0 150 150" style="enable-background:new 0 0 150 150;" xml:space="preserve">
	<style type="text/css">
		.carrot-0{fill:#B96E16;}
		.carrot-1{fill:#C6D199;}
		.carrot-2{fill:#F7931E;}
		.carrot-3{fill:#F9A94B;}
		.carrot-4{fill:none;stroke:#F7931E;stroke-width:5;stroke-linecap:round;stroke-miterlimit:10;}
	</style>
	<path class="carrot-0" d="M130.4,81.6c4.5,13.1,4,31,3,43.1c-0.6,6.2-7,8.5-11.4,4c-8.5-8.8-20.1-22.7-24.6-35.8c-7.4-21.8-16.7-38.3,3-45.1C118.9,41.5,123,59.8,130.4,81.6z"/>			
	<ellipse transform="matrix(0.9461 -0.3239 0.3239 0.9461 -5.9822 33.4281)" class="carrot-1" cx="97.4" cy="34.7" rx="5.1" ry="19.5"/>
	<ellipse transform="matrix(0.7733 -0.6341 0.6341 0.7733 -4.429 66.1798)" class="carrot-1" cx="90.3" cy="39.3" rx="5.1" ry="19.5"/>
	<ellipse transform="matrix(0.1925 -0.9813 0.9813 0.1925 49.7455 131.801)" class="carrot-1" cx="105" cy="35.7" rx="19.5" ry="5.1"/>
	<path class="carrot-2" d="M110.6,84.4c9.9,10.1,17.3,26.8,21.6,38.4c2.2,6-2.7,10.9-8.7,8.7c-11.7-4.5-28.4-12.1-38.3-22.3C68.8,92.4,53,81.2,68.3,66.4C82.4,52.6,94.2,67.6,110.6,84.4z"/>
	<ellipse transform="matrix(0.7158 -0.6983 0.6983 0.7158 -22.5446 58.8413)" class="carrot-1" cx="61" cy="57.1" rx="5.1" ry="19.5"/>
	<ellipse transform="matrix(0.4266 -0.9045 0.9045 0.4266 -25.6967 88.0668)" class="carrot-1" cx="56.6" cy="64.3" rx="5.1" ry="19.5"/>
	<ellipse transform="matrix(0.9691 -0.2468 0.2468 0.9691 -11.4087 18.5601)" class="carrot-1" cx="68.3" cy="54.8" rx="5.1" ry="19.5"/>
	<ellipse transform="matrix(0.281 -0.9597 0.9597 0.281 -68.2691 104.7379)" class="carrot-1" cx="35.8" cy="97.9" rx="5.1" ry="19.5"/>
	<ellipse transform="matrix(0.9974 -7.219309e-02 7.219309e-02 0.9974 -7.5885 2.8288)" class="carrot-1" cx="35.3" cy="106.4" rx="19.5" ry="5.1"/>
	<ellipse transform="matrix(0.7232 -0.6906 0.6906 0.7232 -52.4175 53.7879)" class="carrot-1" cx="40.9" cy="92.3" rx="5.1" ry="19.5"/>
	<path class="carrot-3" d="M93,98c13.3,3.9,27.7,14.6,37,22.4c4.8,4,2.9,10.7-3.3,11.6c-12.1,1.8-30.1,3.3-43.5-0.6c-22.1-6.5-41-8.4-35.1-28.5C53.6,84.3,70.9,91.5,93,98z"/>
	<path class="carrot-4" d="M63,97.1c3.7,8.3-0.1,17.9-8.4,21.6c-0.2,0.1-0.4,0.2-0.6,0.3"/>
</svg>
