<?xml version="1.0" encoding="utf-8"?>
<!-- Generator: Adobe Illustrator 24.2.3, SVG Export Plug-In . SVG Version: 6.00 Build 0)  -->
<svg version="1.1" id="Layer_1" xmlns="http://www.w3.org/2000/svg" xmlns:xlink="http://www.w3.org/1999/xlink" x="0px" y="0px"
	 viewBox="0 0 197.6 1158" style="enable-background:new 0 0 197.6 1158;" xml:space="preserve">
<style type="text/css">
	.st0{fill:#E07D56;}
	.st1{fill:none;stroke:#AABA66;stroke-miterlimit:10;}
	.st2{fill:none;stroke:#E89E80;stroke-miterlimit:10;}
	.st3{fill:#B8CA92;}
	.st4{fill:none;stroke:#718C00;stroke-miterlimit:10;}
	.st5{fill:#ECE68B;}
	.st6{fill:#FDBB53;}
	.st7{fill:none;stroke:#FDBB53;stroke-miterlimit:10;}
	.st8{fill:#778733;}
	.st9{fill:#718C00;}
	.st10{opacity:9.000000e-02;fill:#718C00;enable-background:new    ;}
</style>
<g>
	<path class="st0" d="M183.7,521.5c0,0-47.1,21.5-27.1,29.1C185.8,561.6,183.7,521.5,183.7,521.5z"/>
	<path class="st1" d="M183.5,521.3c0,0-16.3,34.1-48.5,35.6"/>
</g>
<g>
	<path class="st0" d="M196.2,71.6c0,0-55.4-33.9-28.6-49.1C206.9,0.3,196.2,71.6,196.2,71.6z"/>
	<path class="st2" d="M195.9,71.9c0,0-13.8-59.1-54.4-58.8"/>
</g>
<g>
	<path class="st3" d="M0.3,144.3c0,0,50.9-36,29.3-48.7C-2,77.1,0.3,144.3,0.3,144.3z"/>
	<path class="st4" d="M0.5,144.6c0,0,17.6-57.2,52.5-59.6"/>
</g>
<g>
	<path class="st5" d="M186.1,248.9c0,0-47.4-44.4-18-53.9C211,181.3,186.1,248.9,186.1,248.9z"/>
	<path class="st4" d="M185.8,249.1c0,0-1.5-60.7-41.4-68.7"/>
</g>
<g>
	<path class="st6" d="M113.1,218.8c0,0-1-64.7-27.4-49.8C47.2,190.8,113.1,218.8,113.1,218.8z"/>
	<path class="st4" d="M113.5,218.7c0,0-43.2-42.4-22.6-76.8"/>
</g>
<g>
	<path class="st3" d="M115.2,307.2c0,0-29.7-46.8-3.4-48.3C150.1,256.5,115.2,307.2,115.2,307.2z"/>
	<path class="st4" d="M114.9,307.3c0,0,11.6-50.4-19.6-65.5"/>
</g>
<g>
	<path class="st0" d="M17.1,373.1c0,0,61.1-21.1,38.8-41.5C23.2,301.8,17.1,373.1,17.1,373.1z"/>
	<path class="st7" d="M17.3,373.5c0,0,26.8-54.3,65.9-45.5"/>
</g>
<g>
	<path class="st8" d="M15.8,287.1c0,0,45.5-7.1,29.1-25.4C21,235,15.8,287.1,15.8,287.1z"/>
	<path class="st1" d="M16,287.4c0,0,20.4-36.6,49.3-24.5"/>
</g>
<g>
	<path class="st6" d="M177.5,412.1c0,0-55.4-33.9-28.6-49.1C188.2,340.8,177.5,412.1,177.5,412.1z"/>
	<path class="st4" d="M177.2,412.4c0,0-13.8-59.1-54.4-58.8"/>
</g>
<g>
	<path class="st0" d="M174.6,447.6c0,0-44.7-11.7-27.4-28.5C172.6,394.5,174.6,447.6,174.6,447.6z"/>
	<path class="st7" d="M174.5,447.9c0,0-18-38.9-47.4-29.6"/>
</g>
<g>
	<path class="st8" d="M120.1,514.7c0,0-55.4-33.9-28.6-49.1C130.7,443.4,120.1,514.7,120.1,514.7z"/>
	<path class="st7" d="M119.8,515c0,0-13.8-59.1-54.4-58.8"/>
</g>
<g>
	<path class="st3" d="M76.6,565.3c0,0,2.1-50.4-20.6-37.6C22.9,546.4,76.6,565.3,76.6,565.3z"/>
	<path class="st4" d="M76.9,565.2c0,0-34.1-31.2-15.4-58.9"/>
</g>
<g>
	<path class="st8" d="M121.6,124.3c0,0,3.4-67.2-27.3-49.8C49.5,99.8,121.6,124.3,121.6,124.3z"/>
	<path class="st1" d="M122.1,124.2c0,0-45.7-41.1-20-78.3"/>
</g>
<g>
	<path class="st6" d="M73.9,33.9c0,0,49.5,9.5,36.8-17C92-21.8,73.9,33.9,73.9,33.9z"/>
	<path class="st4" d="M74,34.3c0,0,30.3-32.7,57.7-8.3"/>
</g>
<g>
	<path class="st5" d="M33.9,395.1c0,0,50.9,28.6,29.3,38.7C31.7,448.5,33.9,395.1,33.9,395.1z"/>
	<path class="st4" d="M34.1,394.8c0,0,17.6,45.5,52.5,47.4"/>
</g>
<g>
	<path class="st0" d="M110.8,206.8c0,0-29.7-46.8-3.4-48.3C145.8,156.2,110.8,206.8,110.8,206.8z"/>
	<path class="st7" d="M110.5,206.9c0,0,11.6-50.4-19.6-65.5"/>
</g>
<g>
	<path class="st3" d="M84.9,430.5c0,0,54.9-11.7,33.6-28.5C87.3,377.3,84.9,430.5,84.9,430.5z"/>
	<path class="st4" d="M85,430.7c0,0,22.1-38.9,58.2-29.6"/>
</g>
<g>
	<path class="st6" d="M36,471.8c0,0,45.6-11.7,27.9-28.5C38,418.7,36,471.8,36,471.8z"/>
	<path class="st4" d="M36.2,472.1c0,0,18.4-38.9,48.4-29.6"/>
</g>
<path class="st9" d="M99.1,1014.9c24.9-14.2,50.6-28.8,48.3-50c-2.6-23.2-27.5-37.5-51.6-51.5c-23.1-13.4-45-26-44.9-44.9
	c0.1-19.6,24.3-33.7,47.7-47.2c24-13.9,48.8-28.3,48.8-49.3c0.1-21.1-24.8-35.4-48.8-49.3c-23.5-13.6-47.8-27.6-47.7-47.3
	c0-18.9,21.8-31.6,44.9-44.9c23.9-13.9,48.7-28.2,51.6-51.1l0,0c-0.2-21.4-25.1-35.8-49.3-49.8c-23.2-13.5-47.2-27.4-47.2-46.7
	c0-19.2,24.6-33.1,48.3-46.6c24.9-14.2,50.6-28.8,48.3-50c-2.6-23.2-27.5-37.5-51.6-51.5c-23.1-13.4-45-26-44.9-44.9
	c0.1-19.6,24.3-33.7,47.7-47.2c24-13.9,48.8-28.3,48.8-49.3c0.1-21.1-24.8-35.4-48.8-49.3c-23.5-13.6-47.8-27.6-47.7-47.3
	c0-18.9,21.8-31.6,44.9-44.9c24-13.9,48.9-28.3,51.5-51.4l-2.4-0.3c-2.5,21.9-26.9,36-50.4,49.6C70.9,63.4,48.5,76.4,48.4,96.7
	c0,21.1,24.9,35.5,48.9,49.4c23.4,13.5,47.6,27.5,47.6,47.1c0,19.6-24.2,33.6-47.6,47.2c-24,13.9-48.8,28.3-48.9,49.3
	c0,20.3,22.4,33.2,46.1,47c23.6,13.7,48,27.7,50.4,49.7c1,8.8-3.2,17-13.2,25.7c-9,7.8-21.6,15-33.9,22
	c-24.3,13.8-49.4,28.1-49.5,48.7c0,20.8,24.6,35,48.4,48.8c23.3,13.5,47.5,27.5,48.1,47.2l0,0c-2.5,21.9-26.9,36-50.4,49.6
	c-23.7,13.8-46.1,26.7-46.1,47.1c0,21.1,24.9,35.5,48.9,49.4c23.4,13.5,47.6,27.5,47.6,47.1c0,19.6-24.2,33.6-47.6,47.2
	c-24,13.9-48.8,28.3-48.9,49.3c0,20.3,22.4,33.2,46.1,47c23.6,13.7,48,27.7,50.4,49.7c1,8.8-3.2,17-13.2,25.7
	c-9,7.8-21.6,15-33.9,22c-24.3,13.8-49.4,28.1-49.5,48.7c0,20.8,24.6,35,48.4,48.8c23.5,13.6,47.9,27.7,48.1,47.7l2.5,0.1
	c-0.2-21.4-25.1-35.8-49.3-49.8c-23.2-13.5-47.2-27.4-47.2-46.7C50.9,1042.4,75.4,1028.4,99.1,1014.9z"/>
<path class="st10" d="M110.1,1019.4c26.3-15,53.6-30.5,50.9-55.2c-1.3-11.8-7.8-22.5-19.7-32.8c-9.9-8.5-22.4-15.7-34.5-22.7
	c-21.8-12.6-42.3-24.5-42.3-40.3c0-16.6,22.9-29.8,45-42.7c25.3-14.7,51.4-29.8,51.5-53.9c0.1-24.1-26.1-39.2-51.4-53.9
	c-22.2-12.8-45.1-26-45.1-42.7c0-15.8,20.6-27.7,42.3-40.3c12.1-7,24.5-14.2,34.4-22.7c12-10.3,18.5-21.4,19.8-33.2l0,0
	c-0.2-24.4-26.5-39.6-52-54.3c-21.9-12.7-44.6-25.8-44.5-42.1c0-16.1,23.2-29.3,45.6-42c26.3-15,53.6-30.5,50.9-55.2
	c-1.3-11.8-7.8-22.5-19.7-32.8c-9.9-8.5-22.4-15.7-34.5-22.7c-21.8-12.6-42.3-24.5-42.3-40.3c0-16.6,22.9-29.8,45-42.7
	c25.3-14.7,51.4-29.8,51.5-53.9c0.1-24.1-26.1-39.2-51.4-53.9c-22.2-12.8-45.1-26-45.1-42.7c0-15.8,20.6-27.7,42.3-40.3
	c12.1-7,24.5-14.2,34.4-22.7c9.4-8.1,15.4-16.4,18.2-25.3c1.2-3.8-1.3-7.8-5.3-8.3l-0.3,0c-3-0.3-5.9,1.5-6.8,4.4
	C141.9,21,120.8,33.2,100.4,45c-24,13.9-48.7,28.3-48.8,51.6c0,24.2,26.2,39.3,51.6,54c22.1,12.7,45,25.9,44.9,42.5
	c-0.1,16.6-22.9,29.8-45,42.6c-25.3,14.7-51.4,29.8-51.5,53.9c-0.1,23.4,24.8,37.7,48.8,51.6c22.4,13,45.7,26.4,47.8,45.7
	c1.8,16.2-21.7,29.5-44.4,42.5c-25.6,14.6-52.1,29.7-52.1,53.3c0,23.8,25.9,38.8,51.1,53.4c21.5,12.4,43.7,25.3,45.3,41.4
	c0.1,0.5,0,1,0,1.5c-2.8,18.8-25.6,32-47.6,44.7c-24,13.9-48.7,28.3-48.8,51.6c0,24.2,26.2,39.3,51.6,54
	c22.1,12.7,45,25.9,44.9,42.5c-0.1,16.6-22.9,29.8-45,42.6c-25.3,14.7-51.4,29.8-51.5,53.9c-0.1,23.4,24.8,37.7,48.8,51.6
	c22.4,13,45.7,26.4,47.8,45.7c1.8,16.2-21.7,29.5-44.4,42.5c-25.6,14.6-52.1,29.7-52.1,53.3c0,23.8,25.9,38.8,51.1,53.4
	c20.1,11.6,40.9,23.6,44.8,38.4c0.8,2.8,3.3,4.8,6.2,4.8l0.3,0c4.1,0,7.1-4,6.1-8c-5.1-19.9-28.4-33.4-50.9-46.4
	c-21.9-12.7-44.6-25.8-44.5-42.1C64.6,1045.3,87.7,1032.1,110.1,1019.4z"/>
<g>
	<path class="st0" d="M183.7,1100.1c0,0-47.1,21.5-27.1,29.1C185.8,1140.2,183.7,1100.1,183.7,1100.1z"/>
	<path class="st1" d="M183.5,1099.9c0,0-16.3,34.1-48.5,35.6"/>
</g>
<g>
	<path class="st0" d="M196.2,650.3c0,0-55.4-33.9-28.6-49.1C206.9,579,196.2,650.3,196.2,650.3z"/>
	<path class="st2" d="M195.9,650.6c0,0-13.8-59.1-54.4-58.8"/>
</g>
<g>
	<path class="st3" d="M0.3,723c0,0,50.9-36,29.3-48.7C-2,655.8,0.3,723,0.3,723z"/>
	<path class="st4" d="M0.5,723.2c0,0,17.6-57.2,52.5-59.6"/>
</g>
<g>
	<path class="st5" d="M186.1,827.5c0,0-47.4-44.4-18-53.9C211,759.9,186.1,827.5,186.1,827.5z"/>
	<path class="st4" d="M185.7,827.8c0,0-1.5-60.7-41.4-68.7"/>
</g>
<g>
	<path class="st6" d="M113.1,797.5c0,0-1-64.7-27.4-49.8C47.2,769.4,113.1,797.5,113.1,797.5z"/>
	<path class="st4" d="M113.4,797.4c0,0-43.2-42.4-22.6-76.8"/>
</g>
<g>
	<path class="st3" d="M115.2,885.8c0,0-29.7-46.8-3.4-48.3C150.1,835.2,115.2,885.8,115.2,885.8z"/>
	<path class="st4" d="M114.8,886c0,0,11.6-50.4-19.6-65.5"/>
</g>
<g>
	<path class="st0" d="M17.1,951.7c0,0,61.1-21.1,38.8-41.5C23.2,880.4,17.1,951.7,17.1,951.7z"/>
	<path class="st7" d="M17.3,952.1c0,0,26.8-54.3,65.9-45.5"/>
</g>
<g>
	<path class="st8" d="M15.8,865.8c0,0,45.5-7.1,29.1-25.4C20.9,813.7,15.8,865.8,15.8,865.8z"/>
	<path class="st1" d="M16,866.1c0,0,20.4-36.6,49.3-24.5"/>
</g>
<g>
	<path class="st6" d="M177.5,990.7c0,0-55.4-33.9-28.6-49.1C188.1,919.4,177.5,990.7,177.5,990.7z"/>
	<path class="st4" d="M177.2,991c0,0-13.8-59.1-54.4-58.8"/>
</g>
<g>
	<path class="st0" d="M174.6,1026.3c0,0-44.7-11.7-27.4-28.5C172.6,973.1,174.6,1026.3,174.6,1026.3z"/>
	<path class="st7" d="M174.4,1026.5c0,0-18-38.9-47.4-29.6"/>
</g>
<g>
	<path class="st8" d="M120.1,1093.3c0,0-55.4-33.9-28.6-49.1C130.7,1022.1,120.1,1093.3,120.1,1093.3z"/>
	<path class="st7" d="M119.8,1093.6c0,0-13.8-59.1-54.4-58.8"/>
</g>
<g>
	<path class="st3" d="M76.5,1144c0,0,2.1-50.4-20.6-37.6C22.9,1125,76.5,1144,76.5,1144z"/>
	<path class="st4" d="M76.9,1143.9c0,0-34.1-31.2-15.4-58.9"/>
</g>
<g>
	<path class="st8" d="M121.6,703c0,0,3.4-67.2-27.3-49.8C49.5,678.5,121.6,703,121.6,703z"/>
	<path class="st1" d="M122,702.9c0,0-45.7-41.1-20-78.3"/>
</g>
<g>
	<path class="st6" d="M73.9,612.5c0,0,49.5,9.5,36.8-17C92,556.9,73.9,612.5,73.9,612.5z"/>
	<path class="st4" d="M73.9,612.9c0,0,30.3-32.7,57.7-8.3"/>
</g>
<g>
	<path class="st5" d="M33.9,973.8c0,0,50.9,28.6,29.3,38.7C31.7,1027.2,33.9,973.8,33.9,973.8z"/>
	<path class="st4" d="M34.1,973.5c0,0,17.6,45.5,52.5,47.4"/>
</g>
<g>
	<path class="st0" d="M110.8,785.5c0,0-29.7-46.8-3.4-48.3C145.7,734.8,110.8,785.5,110.8,785.5z"/>
	<path class="st7" d="M110.5,785.6c0,0,11.6-50.4-19.6-65.5"/>
</g>
<g>
	<path class="st3" d="M84.8,1009.1c0,0,54.9-11.7,33.6-28.5C87.3,956,84.8,1009.1,84.8,1009.1z"/>
	<path class="st4" d="M85,1009.4c0,0,22.1-38.9,58.2-29.6"/>
</g>
<g>
	<path class="st6" d="M36,1050.4c0,0,45.6-11.7,27.9-28.5C38,997.3,36,1050.4,36,1050.4z"/>
	<path class="st4" d="M36.1,1050.7c0,0,18.4-38.9,48.4-29.6"/>
</g>
</svg>
