<svg version="1.1" id="Layer_1" xmlns="http://www.w3.org/2000/svg" xmlns:xlink="http://www.w3.org/1999/xlink" x="0px" y="0px"
	 viewBox="0 0 408.8 1201.7" style="enable-background:new 0 0 408.8 1201.7;" xml:space="preserve">
<style type="text/css">
	.st0{fill:#718C00;}
	.st1{opacity:9.000000e-02;fill:#718C00;}
	.st2{fill:#E07D56;}
	.st3{fill:none;stroke:#AABA66;stroke-miterlimit:10;}
	.st4{fill:none;stroke:#E89E80;stroke-miterlimit:10;}
	.st5{fill:#B8CA92;}
	.st6{fill:none;stroke:#718C00;stroke-miterlimit:10;}
	.st7{fill:#ECE68B;}
	.st8{fill:#FDBB53;}
	.st9{fill:none;stroke:#FDBB53;stroke-miterlimit:10;}
	.st10{fill:#778733;}
</style>
<path class="st0" d="M299.8,1201.6c-0.4-41.4-50.9-70.7-99.7-98.9c-49.3-28.6-100.4-58.1-100.3-101.1
	c0.1-42.6,52.2-72.3,102.5-100.9c25.4-14.4,51.6-29.4,70.2-45.5c20.7-18,29.4-34.9,27.3-53.2c-5-45.4-55.5-74.6-104.4-102.9
	c-49.2-28.5-95.7-55.3-95.6-97.4c0.1-43.5,51.5-73.4,101.3-102.2c48.5-28.1,98.6-57.2,98.7-97.8c0.1-40.7-50.1-69.7-98.6-97.7
	c-49.9-28.8-101.4-58.5-101.4-102.3c0.1-42.1,46.5-69,95.6-97.5c48.7-28.2,99.2-57.5,104.4-102.8l5,0.6
	c-5.5,47.9-57,77.7-106.8,106.6c-47.9,27.7-93.1,53.9-93.1,93.1c-0.1,40.9,50.2,69.9,98.9,98c49.8,28.7,101.3,58.4,101.1,102.1
	c-0.1,43.5-51.5,73.3-101.2,102.1c-48.5,28.1-98.6,57.2-98.8,97.9c-0.1,39.2,45.2,65.4,93.1,93.1c50,28.9,101.6,58.7,106.9,106.7
	c4.8,44-48.5,74.3-100,103.7c-49.1,28-99.9,56.9-100,96.6c-0.1,40.1,49.7,68.9,97.8,96.8c50.1,29,101.8,58.9,102.2,103.2
	L299.8,1201.6z"/>
<path class="st1" d="M306.5,1201.7c-0.3-35.2-48.1-62.8-94.2-89.5c-52.1-30.1-105.9-61.3-105.8-110.6c0.1-49,55-80.3,108-110.5
	c47.1-26.8,95.7-54.5,92-88c-4.4-39.9-52.5-67.7-99-94.6c-49.8-28.8-101.3-58.5-101.1-107c0.2-49.9,54.3-81.3,106.7-111.7
	c45.8-26.6,93.1-54,93.3-88.3c0.1-34.4-47.3-61.7-93.1-88.1c-52.6-30.3-107-61.7-106.9-111.8c0.1-48.4,51.4-78.2,101.1-107
	C254,67.7,302,39.9,306.5,0l26.8,3.1c-2.8,24.4-16.2,46.6-41,67.9c-20.5,17.6-46.3,32.5-71.3,47c-45.1,26.1-87.6,50.8-87.7,83.6
	c-0.1,34.5,47.4,61.9,93.4,88.4c52.5,30.3,106.8,61.6,106.6,111.6c-0.2,49.8-54.3,81.2-106.7,111.6c-45.8,26.6-93.2,54-93.3,88.4
	c-0.1,32.8,42.5,57.4,87.6,83.5c25,14.5,50.9,29.4,71.4,47c24.8,21.3,38.2,43.5,40.9,68c5.6,51.1-50.9,83.3-105.5,114.4
	c-46.4,26.4-94.3,53.7-94.4,87.1c-0.1,33.7,46.9,60.9,92.3,87.2c52.7,30.5,107.2,62.1,107.7,112.6L306.5,1201.7z"/>
<g>
	<path class="st2" d="M380.2,1081.9c0,0-97.5,44.5-56.1,60.2C384.5,1165,380.2,1081.9,380.2,1081.9z"/>
	<path class="st3" d="M379.8,1081.5c0,0-33.7,70.7-100.6,73.8"/>
</g>
<g>
	<path class="st2" d="M406.1,149.7c0,0-114.9-70.3-59.2-101.8C428.2,1.9,406.1,149.7,406.1,149.7z"/>
	<path class="st4" d="M405.5,150.3c0,0-28.6-122.4-112.8-121.9"/>
</g>
<g>
	<path class="st5" d="M0.1,300.4c0,0,105.4-74.6,60.7-100.9C-4.6,161.1,0.1,300.4,0.1,300.4z"/>
	<path class="st6" d="M0.5,300.9c0,0,36.4-118.5,108.7-123.6"/>
</g>
<g>
	<path class="st7" d="M385.1,517c0,0-98.2-92.1-37.3-111.7C436.7,376.9,385.1,517,385.1,517z"/>
	<path class="st6" d="M384.4,517.5c0,0-3.1-125.7-85.8-142.3"/>
</g>
<g>
	<path class="st8" d="M233.8,454.7c0,0-2-134.1-56.7-103.2C97.3,396.6,233.8,454.7,233.8,454.7z"/>
	<path class="st6" d="M234.6,454.5c0,0-89.6-87.9-46.8-159.2"/>
</g>
<g>
	<path class="st5" d="M238.2,637.8c0,0-61.6-96.9-7.1-100.1C310.5,532.9,238.2,637.8,238.2,637.8z"/>
	<path class="st6" d="M237.5,638.1c0,0,24-104.5-40.7-135.7"/>
</g>
<g>
	<path class="st2" d="M34.9,774.4c0,0,126.7-43.7,80.3-86C47.5,626.6,34.9,774.4,34.9,774.4z"/>
	<path class="st9" d="M35.3,775.2c0,0,55.6-112.5,136.6-94.2"/>
</g>
<g>
	<path class="st10" d="M32.3,596.3c0,0,94.3-14.8,60.3-52.7C42.9,488.3,32.3,596.3,32.3,596.3z"/>
	<path class="st3" d="M32.6,596.9c0,0,42.2-75.8,102.1-50.8"/>
</g>
<g>
	<path class="st8" d="M367.3,855.2c0,0-114.9-70.3-59.2-101.8C389.4,707.4,367.3,855.2,367.3,855.2z"/>
	<path class="st6" d="M366.7,855.8c0,0-28.6-122.4-112.8-121.9"/>
</g>
<g>
	<path class="st2" d="M361.3,928.8c0,0-92.7-24.2-56.7-59.1C357.1,818.7,361.3,928.8,361.3,928.8z"/>
	<path class="st9" d="M361,929.4c0,0-37.4-80.7-98.3-61.4"/>
</g>
<g>
	<path class="st10" d="M248.3,1067.8c0,0-114.9-70.3-59.2-101.8C270.4,920.1,248.3,1067.8,248.3,1067.8z"/>
	<path class="st9" d="M247.7,1068.4c0,0-28.6-122.4-112.8-121.9"/>
</g>
<g>
	<path class="st5" d="M158.1,1172.7c0,0,4.3-104.4-42.6-77.9C47,1133.5,158.1,1172.7,158.1,1172.7z"/>
	<path class="st6" d="M158.8,1172.6c0,0-70.7-64.6-32-122"/>
</g>
<g>
	<path class="st10" d="M251.4,258.9c0,0,7.1-139.3-56.5-103.3C102,208.1,251.4,258.9,251.4,258.9z"/>
	<path class="st3" d="M252.4,258.7c0,0-94.6-85.1-41.5-162.2"/>
</g>
<g>
	<path class="st8" d="M152.6,71.5c0,0,102.6,19.7,76.2-35.2C190.1-43.8,152.6,71.5,152.6,71.5z"/>
	<path class="st6" d="M152.7,72.3c0,0,62.8-67.7,119.6-17.2"/>
</g>
<g>
	<path class="st7" d="M69.8,820c0,0,105.4,59.3,60.7,80.2C65.2,930.7,69.8,820,69.8,820z"/>
	<path class="st6" d="M70.2,819.5c0,0,36.4,94.2,108.7,98.2"/>
</g>
<g>
	<path class="st2" d="M229.1,429.8c0,0-61.6-96.9-7.1-100.1C301.5,324.9,229.1,429.8,229.1,429.8z"/>
	<path class="st9" d="M228.5,430.1c0,0,24-104.5-40.7-135.7"/>
</g>
<g>
	<path class="st5" d="M175.3,893.3c0,0,113.8-24.2,69.6-59.1C180.4,783.2,175.3,893.3,175.3,893.3z"/>
	<path class="st6" d="M175.7,893.8c0,0,45.9-80.7,120.7-61.4"/>
</g>
<g>
	<path class="st8" d="M74.1,978.9c0,0,94.5-24.2,57.8-59.1C78.3,868.9,74.1,978.9,74.1,978.9z"/>
	<path class="st6" d="M74.4,979.5c0,0,38.1-80.7,100.2-61.4"/>
</g>
</svg>
