<?xml version="1.0" encoding="utf-8"?>
<!-- Generator: Adobe Illustrator 24.2.3, SVG Export Plug-In . SVG Version: 6.00 Build 0)  -->
<svg version="1.1" id="Layer_1" xmlns="http://www.w3.org/2000/svg" xmlns:xlink="http://www.w3.org/1999/xlink" x="0px" y="0px"viewBox="0 0 150 150" style="enable-background:new 0 0 150 150;" xml:space="preserve">
	<style type="text/css">
		.potato-0{fill:#B47A65;}
		.potato-1{fill:#C09E66;}
		.potato-2{fill:#FED491;}
		.potato-3{fill:none;stroke:#875C4C;stroke-width:4;stroke-linecap:round;stroke-miterlimit:10;}
		.potato-4{fill:none;stroke:#90774D;stroke-width:4;stroke-linecap:round;stroke-miterlimit:10;}
	</style>
	<path class="potato-0" d="M34.2,46.3c-15.7,5.7-17.6,7.5-18.8,9.4c-6.2,9.3-1.7,26.4,8.5,34.8s23,5.6,48.9,0c19.1-4.1,22.3-8.5,23.5-11.3c3.1-7.3-2.1-15.8-5.6-21.7c-3-4.8-10.2-16.8-23.5-19.7C61.1,36.6,52,39.8,34.2,46.3z"/>
	<path class="potato-1" d="M83.7,44c-16.2,2.1-18.4,3.5-20,5c-8,7.7-7.6,25.4,0.1,35.8s20.6,10.5,46.3,10.8c19.1,0.2,23.1-3.3,24.8-5.8c4.6-6.4,1.6-15.9-0.5-22.3c-1.7-5.3-5.9-18.7-17.8-24.4C111.6,40.5,102.2,41.6,83.7,44z"/>
	<path class="potato-2" d="M91.1,58.5c17.6,1.2,19.9,2.5,21.7,4c8.7,7.4,8.6,25.3,0.5,36.2s-22.1,11.8-50,13.5c-20.7,1.2-25-2.1-27-4.5c-5.1-6.2-2-16,0.1-22.6c1.7-5.5,6.1-19.2,18.9-25.7C60.9,56.5,71.1,57.1,91.1,58.5z"/>
	<path class="potato-3" d="M19.9,72.6c-2.5-7.4,1.4-15.4,8.7-17.9"/>
	<path class="potato-4" d="M104.3,50.6c7.4-2.5,15.4,1.4,17.9,8.7c0,0,0,0,0,0"/>
</svg>
