<?xml version="1.0" encoding="utf-8"?>
<!-- Generator: Adobe Illustrator 24.2.3, SVG Export Plug-In . SVG Version: 6.00 Build 0)  -->
<svg version="1.1" id="Layer_1" xmlns="http://www.w3.org/2000/svg" xmlns:xlink="http://www.w3.org/1999/xlink" x="0px" y="0px"viewBox="0 0 150 150" style="enable-background:new 0 0 150 150;" xml:space="preserve">
	<style type="text/css">
		.pumpkin-0{fill:#E69C81;}
		.pumpkin-1{fill:#E69C81;stroke:#FFFFFF;stroke-width:2;stroke-miterlimit:10;}
	</style>
	<path class="pumpkin-0" d="M136.9,71.3c-2.8-18.7-15.8-29.8-34.9-29.8c-5.9,0.1-11.8,1-17.4,2.7c2.4-2.3,4.2-5.2,4.2-7.6c0-3.4-1.8-5.4-4.9-5.4c-2.8,0-5.4,3.3-5.4,5.8c0,0.5,0.4,1,1,1s1-0.4,1-1c0-1.5,1.9-3.9,3.4-3.9c0.7,0,2.9,0,2.9,3.4c0,2.9-4.4,7.9-8.5,9.4C74.6,41,79.6,29,79.6,29l-6.8-2.7c0,0-2.1,14-6.4,19.9c-4.3-0.9-8.6-1.3-13-1.3c-18.7,0-31.8,8.8-38,25.5c-5,13.5-3.5,28.1,4.1,39c6.1,8.8,15.4,14,24.9,14c4.2,0,8.4-1,12.1-2.9c2.7,1.4,5.8,2.1,8.8,2.1c2.6,0.1,5.1-0.5,7.5-1.6c2.8,1.5,6,2.3,9.2,2.3c3.4,0.1,6.8-0.9,9.7-2.8c4.1,2.1,8.6,3.3,13.2,3.3c7.9,0,15-3.6,20.8-10.3C134.8,103,139.2,86.5,136.9,71.3z"/>
	<path class="pumpkin-1" d="M102,46.4c16.2,0,27.5,8.8,30,25.6c3.2,21.5-8.5,46.8-27.1,46.8c-4.4,0-9.1-1.4-14.2-4.6c-1.4,2.8-5.1,4.1-8.7,4.1c-4,0-8-1.5-9-4.1c-0.9,2.3-4.3,3.3-7.6,3.3c-3.8,0-7.6-1.3-8.1-3.3c-3.8,2.7-8.3,4.1-12.9,4.2C26.7,118.4,11,96.2,20,72c6.7-18,21.1-22.3,33.4-22.3c7,0.1,14,1.3,20.6,3.6C84.3,48.7,93.8,46.4,102,46.4"/>
</svg>
