<svg xmlns="http://www.w3.org/2000/svg" viewBox="0 0 330.08 99.16"><defs><style>.pumpkin-1,.pumpkin-2{fill:#e69c81;}.pumpkin-2{stroke:#fff;stroke-miterlimit:10;stroke-width:2px;}.pumpkin-3,.pumpkin-4{font-size:62.1px;font-family:Rochester-Regular, Rochester;}.pumpkin-3{fill:#d65a2d;}.pumpkin-4{fill:#fff;}</style></defs><g id="Layer_2" data-name="Layer 2"><g id="Layer_1-2" data-name="Layer 1"><path class="pumpkin-1" d="M126.58,45.77c-2.81-19-16.07-30.28-35.48-30.28a64.23,64.23,0,0,0-17.72,2.7c2.46-2.38,4.25-5.33,4.25-7.69,0-3.44-1.85-5.5-5-5.5-2.82,0-5.47,3.34-5.47,5.93a1,1,0,1,0,2,0C69.19,9.38,71.05,7,72.66,7c.74,0,3,0,3,3.5,0,2.91-4.48,8.07-8.62,9.61-3.82-5.17,1.25-17.36,1.25-17.36L61.38,0S59.2,14.21,54.82,20.21a68.54,68.54,0,0,0-13.19-1.36c-19,0-32.39,9-38.68,25.91C-2.15,58.48-.57,73.31,7.17,84.44c6.22,9,15.69,14.29,25.34,14.29a27.13,27.13,0,0,0,12.34-3,18.72,18.72,0,0,0,9,2.13,17.29,17.29,0,0,0,7.59-1.58,19.07,19.07,0,0,0,9.34,2.32,16.74,16.74,0,0,0,9.83-2.85,30,30,0,0,0,13.45,3.38c8,0,15.3-3.62,21.21-10.47C124.44,78.07,128.87,61.23,126.58,45.77Z"/><path class="pumpkin-2" d="M91.1,20.49c16.5,0,28,9,30.53,26,3.24,21.86-8.6,47.66-27.56,47.66-4.45,0-9.3-1.43-14.44-4.66-1.43,2.86-5.14,4.13-8.84,4.13-4.06,0-8.11-1.52-9.16-4.13-.94,2.36-4.34,3.39-7.77,3.39-3.83,0-7.7-1.28-8.23-3.39a23.08,23.08,0,0,1-13.12,4.23c-18.06,0-34-22.54-24.88-47.23,6.8-18.28,21.5-22.65,34-22.65a65.8,65.8,0,0,1,21,3.65c10.44-4.71,20.1-7,28.47-7"/><text class="pumpkin-3" transform="translate(144.47 80.99)">Pumpkin</text><text class="pumpkin-4" transform="translate(50.44 80.99)">1</text></g></g></svg>