<svg xmlns="http://www.w3.org/2000/svg" viewBox="0 0 364.74 129.8"><defs><style>.sp-1{fill:#bbbdbf;}.sp-2{fill:#3c989e;stroke-width:5px;opacity:0.37;}.sp-2,.sp-5{stroke:#fff;stroke-miterlimit:10;}.sp-3{fill:#e6e7e8;}.sp-4{fill:#fdbb53;}.sp-5{fill:none;stroke-linecap:round;stroke-width:3px;}.sp-6{fill:#808184;}.sp-7{fill:#fff;}.sp-8{font-size:62.1px;fill:#b8836f;font-family:Rochester-Regular, Rochester;}</style></defs><g id="Layer_2" data-name="Layer 2"><g id="Layer_1-2" data-name="Layer 1"><path class="sp-1" d="M78.78,70.52,36.55,61.69,26.61,93.84a4,4,0,0,0,2.78,5.21l40.88,8.55A4,4,0,0,0,74.9,104Z"/><path class="sp-2" d="M48.53,31.52l31.41,6.56a4.06,4.06,0,0,1,3.16,4.46l-6.85,62a4.08,4.08,0,0,1-4.85,3.6l-43.31-9a4.08,4.08,0,0,1-3-5.26l18.75-59.5A4.08,4.08,0,0,1,48.53,31.52Z"/><path class="sp-3" d="M71.38,1.24A19.84,19.84,0,0,0,49.61,11.73a4.08,4.08,0,0,0,2.83,5.8l29.77,6.22a4.07,4.07,0,0,0,4.9-4.18A19.82,19.82,0,0,0,71.38,1.24Z"/><rect class="sp-4" x="46.62" y="22.72" width="39.63" height="4.35" rx="2.17" transform="translate(6.5 -13.06) rotate(11.8)"/><rect class="sp-4" x="45.2" y="28.35" width="39.63" height="4.35" rx="2.17" transform="translate(7.62 -12.65) rotate(11.8)"/><line class="sp-5" x1="51.29" y1="33.58" x2="34.32" y2="87.02"/><line class="sp-5" x1="77.3" y1="39.02" x2="70.68" y2="94.62"/><line class="sp-5" x1="58.15" y1="35.01" x2="40.52" y2="94.52"/><line class="sp-5" x1="70.68" y1="37.63" x2="62.06" y2="99.02"/><line class="sp-5" x1="63.82" y1="36.2" x2="50.53" y2="99.82"/><ellipse class="sp-6" cx="62.56" cy="1.49" rx="1.81" ry="0.97" transform="translate(0.99 12.65) rotate(-11.64)"/><ellipse class="sp-6" cx="56.97" cy="7.21" rx="2.15" ry="1.25" transform="translate(3.07 27.02) rotate(-27.39)"/><ellipse class="sp-6" cx="78.36" cy="4.22" rx="1.25" ry="2.15" transform="translate(26.88 63.45) rotate(-52.09)"/><ellipse class="sp-6" cx="73.58" cy="6.77" rx="1.47" ry="2.15" transform="translate(38.61 71.87) rotate(-67.01)"/><ellipse class="sp-6" cx="80.33" cy="11.64" rx="1.18" ry="2.15" transform="translate(11.23 54.24) rotate(-39.9)"/><ellipse class="sp-6" cx="65.7" cy="5.13" rx="2.15" ry="1.47" transform="translate(-0.17 3.26) rotate(-2.84)"/><ellipse class="sp-6" cx="63.46" cy="9.93" rx="2.15" ry="1.75" transform="translate(-0.41 3.16) rotate(-2.84)"/><ellipse class="sp-6" cx="73.27" cy="12.13" rx="2.15" ry="1.75" transform="translate(-0.51 3.65) rotate(-2.84)"/><ellipse class="sp-6" cx="56.04" cy="12.65" rx="1.59" ry="0.91" transform="translate(0.35 26.75) rotate(-26.93)"/><ellipse class="sp-6" cx="78.17" cy="17.27" rx="0.91" ry="1.59" transform="translate(-1.78 21.35) rotate(-15.38)"/><ellipse class="sp-6" cx="67.3" cy="15" rx="1.59" ry="1.61" transform="translate(0.5 32.1) rotate(-26.93)"/><ellipse class="sp-6" cx="68.75" cy="9.22" rx="1.22" ry="1.23" transform="translate(3.28 32.14) rotate(-26.93)"/><ellipse class="sp-6" cx="60.23" cy="16.29" rx="0.6" ry="0.61" transform="translate(-0.85 29.05) rotate(-26.93)"/><ellipse class="sp-6" cx="72.98" cy="18.96" rx="0.6" ry="0.61" transform="translate(-0.67 35.11) rotate(-26.93)"/><ellipse class="sp-6" cx="83.66" cy="20.57" rx="0.6" ry="0.61" transform="translate(-0.24 40.12) rotate(-26.93)"/><ellipse class="sp-6" cx="51.43" cy="14.45" rx="0.6" ry="0.61" transform="translate(-0.97 24.86) rotate(-26.93)"/><ellipse class="sp-6" cx="51" cy="10.62" rx="1.59" ry="0.91" transform="translate(14.88 48.17) rotate(-57.88)"/><ellipse class="sp-6" cx="86.05" cy="16.96" rx="0.91" ry="1.59" transform="translate(-1.49 11.51) rotate(-7.59)"/><ellipse class="sp-6" cx="70.58" cy="1.32" rx="1.25" ry="2.15" transform="translate(52.61 69.59) rotate(-76.32)"/><path class="sp-7" d="M52.87,60.55,11.23,71.86,17,105a4,4,0,0,0,4.84,3.38l40.3-11a4,4,0,0,0,2.47-5.36Z"/><path class="sp-2" d="M8.2,39.54l31-8.41A4.06,4.06,0,0,1,44,33.66L66.06,92a4.08,4.08,0,0,1-2.69,5.41L20.67,109a4.1,4.1,0,0,1-5.06-3.33L5.3,44.16A4.08,4.08,0,0,1,8.2,39.54Z"/><path class="sp-3" d="M14.81,2.19A19.83,19.83,0,0,0,.19,21.42,4.08,4.08,0,0,0,5.34,25.3l29.34-8a4.07,4.07,0,0,0,2.48-6A19.83,19.83,0,0,0,14.81,2.19Z"/><rect class="sp-4" x="1.33" y="23.33" width="39.63" height="4.35" rx="2.17" transform="translate(-5.95 6.44) rotate(-15.2)"/><rect class="sp-4" x="2.62" y="28.99" width="39.63" height="4.35" rx="2.17" transform="translate(-7.39 6.97) rotate(-15.2)"/><line class="sp-5" x1="11.6" y1="40.12" x2="20.75" y2="95.44"/><line class="sp-5" x1="37.25" y1="33.15" x2="56.6" y2="85.7"/><line class="sp-5" x1="18.36" y1="38.28" x2="29.69" y2="99.31"/><line class="sp-5" x1="30.72" y1="34.92" x2="50.92" y2="93.54"/><line class="sp-5" x1="23.96" y1="36.76" x2="41" y2="99.49"/><ellipse class="sp-6" cx="4.69" cy="14.05" rx="2.15" ry="1.25" transform="translate(-9.47 9.68) rotate(-54.4)"/><ellipse class="sp-6" cx="27.51" cy="7.39" rx="1.18" ry="2.15" transform="translate(9.92 29.8) rotate(-66.91)"/><ellipse class="sp-6" cx="11.7" cy="13.53" rx="2.15" ry="1.75" transform="translate(-5.18 7.62) rotate(-29.85)"/><ellipse class="sp-6" cx="21.45" cy="11.03" rx="2.15" ry="1.75" transform="translate(-2.65 12.14) rotate(-29.85)"/><ellipse class="sp-6" cx="6.33" cy="19.31" rx="1.59" ry="0.91" transform="translate(-13.01 13.06) rotate(-53.93)"/><ellipse class="sp-6" cx="28.14" cy="13.38" rx="0.91" ry="1.59" transform="translate(-1.67 22.47) rotate(-42.38)"/><ellipse class="sp-6" cx="17.43" cy="16.3" rx="1.59" ry="1.61" transform="translate(-6.01 20.79) rotate(-53.94)"/><ellipse class="sp-6" cx="16.1" cy="10.49" rx="1.22" ry="1.23" transform="translate(-1.86 17.33) rotate(-53.94)"/><ellipse class="sp-6" cx="11.72" cy="20.66" rx="0.6" ry="0.61" transform="translate(-11.88 17.97) rotate(-53.94)"/><ellipse class="sp-6" cx="24.29" cy="17.24" rx="0.6" ry="0.61" transform="translate(-3.95 26.72) rotate(-53.94)"/><ellipse class="sp-6" cx="34.53" cy="13.83" rx="0.6" ry="0.61" transform="translate(3.02 33.6) rotate(-53.94)"/><ellipse class="sp-6" cx="3.04" cy="23.02" rx="0.6" ry="0.61" transform="translate(-17.36 11.92) rotate(-53.94)"/><ellipse class="sp-6" cx="0.92" cy="19.8" rx="1.59" ry="0.91" transform="translate(-18.88 18.95) rotate(-84.88)"/><ellipse class="sp-6" cx="35.03" cy="9.53" rx="0.91" ry="1.59" transform="translate(0.78 21.57) rotate(-34.6)"/><ellipse class="sp-6" cx="7.07" cy="6.41" rx="1.81" ry="0.97" transform="translate(-2.46 5.82) rotate(-38.64)"/><ellipse class="sp-6" cx="22.39" cy="1.68" rx="1.25" ry="2.15" transform="translate(16.51 23.34) rotate(-79.1)"/><ellipse class="sp-6" cx="19.29" cy="6.11" rx="2.15" ry="1.47" transform="matrix(1, -0.07, 0.07, 1, -0.38, 1.37)"/><ellipse class="sp-6" cx="11.52" cy="8.22" rx="2.15" ry="1.47" transform="translate(-2.56 6.83) rotate(-29.85)"/><ellipse class="sp-6" cx="14.14" cy="2.62" rx="2.15" ry="1.25" transform="translate(-0.22 3.33) rotate(-13.33)"/><text class="sp-8" transform="translate(120.98 61.79)">Salt <tspan x="0" y="52" xml:space="preserve">   &amp; Pepper</tspan></text></g></g></svg>