<?xml version="1.0" encoding="utf-8"?>
<!-- Generator: Adobe Illustrator 24.2.3, SVG Export Plug-In . SVG Version: 6.00 Build 0)  -->
<svg version="1.1" id="Layer_1" xmlns="http://www.w3.org/2000/svg" xmlns:xlink="http://www.w3.org/1999/xlink" x="0px" y="0px" viewBox="0 0 150 150" style="enable-background:new 0 0 150 150;" xml:space="preserve">
	<style type="text/css">
		.salt-pepper-0{fill:#FDBB53;}
		.salt-pepper-1{fill:#BBBDBF;}
		.salt-pepper-2{opacity:0.37;fill:#3C989E;stroke:#FFFFFF;stroke-width:5;stroke-miterlimit:10;enable-background:new;}
		.salt-pepper-3{fill:none;stroke:#FFFFFF;stroke-width:3;stroke-linecap:round;stroke-miterlimit:10;}
		.salt-pepper-4{fill:#E6E7E8;}
		.salt-pepper-5{fill:#808184;}
		.salt-pepper-6{fill:#FFFFFF;}
	</style>
	<g id="pepper">
		<path class="salt-pepper-0" d="M81.9,34.4l39.6,8.3c1.3,0.3,2.2,1.6,1.9,2.9l0,0c-0.3,1.3-1.6,2.2-2.9,1.9l-39.6-8.3c-1.3-0.3-2.2-1.6-1.9-2.9l0,0C79.3,35,80.6,34.2,81.9,34.4z"/>
		<path class="salt-pepper-0" d="M80.3,40.9l39.6,8.3c1.3,0.3,2.2,1.6,1.9,2.9l0,0c-0.3,1.3-1.6,2.2-2.9,1.9l-39.6-8.3c-1.3-0.3-2.2-1.6-1.9-2.9l0,0C77.6,41.5,79,40.6,80.3,40.9z"/>
		<path class="salt-pepper-1" d="M115.3,93.3L67,83.2L55.6,120c-0.8,2.4,0.4,5,2.8,5.8c0.1,0,0.3,0.1,0.4,0.1l46.8,9.8c2.5,0.4,4.9-1.3,5.3-3.8c0-0.1,0-0.2,0-0.3L115.3,93.3z"/>
		<path class="salt-pepper-2" d="M80.7,48.6l36,7.5c2.3,0.5,3.9,2.7,3.6,5.1l-7.8,71c-0.3,2.6-2.5,4.4-5.1,4.2c-0.1,0-0.3,0-0.4-0.1l-49.6-10.3c-2.5-0.6-4.1-3-3.6-5.6c0-0.2,0.1-0.3,0.1-0.5l21.5-68.2C76,49.6,78.3,48.1,80.7,48.6z"/>
		<line class="salt-pepper-3" x1="83.9" y1="51" x2="64.4" y2="112.2"/>
		<line class="salt-pepper-3" x1="113.6" y1="57.2" x2="106.1" y2="120.9"/>
		<line class="salt-pepper-3" x1="91.7" y1="52.6" x2="71.5" y2="120.8"/>
		<line class="salt-pepper-3" x1="106.1" y1="55.6" x2="96.2" y2="125.9"/>
		<line class="salt-pepper-3" x1="98.2" y1="54" x2="83" y2="126.8"/>
		<path class="salt-pepper-4" d="M106.9,13.9c-10.1-2.1-20.3,2.8-24.9,12c-1.1,2.3-0.2,5.1,2.1,6.3c0.4,0.2,0.7,0.3,1.1,0.4l34.1,7.1c2.5,0.5,5-1.1,5.5-3.6c0.1-0.4,0.1-0.8,0.1-1.2C124.3,24.6,116.9,16,106.9,13.9z"/>
		<ellipse transform="matrix(0.9794 -0.2018 0.2018 0.9794 -0.8739 19.8163)" class="salt-pepper-5" cx="96.8" cy="14.2" rx="2.1" ry="1.1"/>
		<ellipse transform="matrix(0.8879 -0.46 0.46 0.8879 0.5821 43.8971)" class="salt-pepper-5" cx="90.4" cy="20.8" rx="2.5" ry="1.4"/>
		<ellipse transform="matrix(0.6144 -0.789 0.789 0.6144 30.6188 97.301)" class="salt-pepper-5" cx="114.9" cy="17.3" rx="1.4" ry="2.5"/>			
		<ellipse transform="matrix(0.3906 -0.9206 0.9206 0.3906 48.0175 113.0454)" class="salt-pepper-5" cx="109.4" cy="20.3" rx="1.7" ry="2.5"/>			
		<ellipse transform="matrix(0.7672 -0.6414 0.6414 0.7672 10.7006 81.1355)" class="salt-pepper-5" cx="117.1" cy="25.8" rx="1.4" ry="2.5"/>			
		<ellipse transform="matrix(0.9988 -4.954705e-02 4.954705e-02 0.9988 -0.7867 4.9954)" class="salt-pepper-5" cx="100.4" cy="18.4" rx="2.5" ry="1.7"/>			
		<ellipse transform="matrix(0.9988 -4.954705e-02 4.954705e-02 0.9988 -1.0626 4.875)" class="salt-pepper-5" cx="97.8" cy="23.9" rx="2.5" ry="2"/>
		<ellipse transform="matrix(0.9988 -4.954705e-02 4.954705e-02 0.9988 -1.1737 5.4348)" class="salt-pepper-5" cx="109" cy="26.4" rx="2.5" ry="2"/>
		<ellipse transform="matrix(0.8916 -0.4529 0.4529 0.8916 -2.5357 43.3691)" class="salt-pepper-5" cx="89.3" cy="27" rx="1.8" ry="1"/>
		<ellipse transform="matrix(0.9642 -0.2652 0.2652 0.9642 -4.4539 31.5626)" class="salt-pepper-5" cx="114.6" cy="32.3" rx="1" ry="1.8"/>
		<ellipse transform="matrix(0.8916 -0.4529 0.4529 0.8916 -2.3546 49.4988)" class="salt-pepper-5" cx="102.2" cy="29.7" rx="1.8" ry="1.8"/>
		<ellipse transform="matrix(0.8916 -0.4529 0.4529 0.8916 0.8196 49.5369)" class="salt-pepper-5" cx="103.9" cy="23.1" rx="1.4" ry="1.4"/>
		<ellipse transform="matrix(0.8916 -0.4529 0.4529 0.8916 -3.9083 45.9931)" class="salt-pepper-5" cx="94.1" cy="31.2" rx="0.7" ry="0.7"/>
		<ellipse transform="matrix(0.8916 -0.4529 0.4529 0.8916 -3.7068 52.9425)" class="salt-pepper-5" cx="108.7" cy="34.2" rx="0.7" ry="0.7"/>
		<ellipse transform="matrix(0.8916 -0.4529 0.4529 0.8916 -3.2145 58.6837)" class="salt-pepper-5" cx="120.9" cy="36.1" rx="0.7" ry="0.7"/>
		<ellipse transform="matrix(0.8916 -0.4529 0.4529 0.8916 -4.0442 41.1988)" class="salt-pepper-5" cx="84" cy="29" rx="0.7" ry="0.7"/>
		<ellipse transform="matrix(0.5317 -0.8469 0.8469 0.5317 18.2235 82.278)" class="salt-pepper-5" cx="83.5" cy="24.7" rx="1.8" ry="1"/>
		<ellipse transform="matrix(0.9912 -0.1321 0.1321 0.9912 -3.1319 16.6142)" class="salt-pepper-5" cx="123.7" cy="31.9" rx="1" ry="1.8"/>
		<ellipse transform="matrix(0.2365 -0.9716 0.9716 0.2365 67.2872 113.6471)" class="salt-pepper-5" cx="106" cy="14" rx="1.4" ry="2.5"/>
	</g>
	<g id="salt">
		<path class="salt-pepper-0" d="M29.2,44.6l39-10.6c1.3-0.4,2.7,0.4,3.1,1.7l0,0c0.4,1.3-0.4,2.7-1.7,3.1l-39,10.6c-1.3,0.4-2.7-0.4-3.1-1.7l0,0C27.1,46.3,27.8,45,29.2,44.6z"/>
		<path class="salt-pepper-0" d="M30.6,51.1l39-10.6c1.3-0.4,2.7,0.4,3.1,1.7l0,0c0.4,1.3-0.4,2.7-1.7,3.1l-39,10.6c-1.3,0.4-2.7-0.4-3.1-1.7l0,0C28.5,52.8,29.3,51.4,30.6,51.1z"/>
		<path class="salt-pepper-6" d="M85.7,81.9L38,94.8l6.6,38c0.3,2.5,2.6,4.3,5.1,3.9c0.1,0,0.3,0,0.4-0.1L96.3,124c2.4-0.8,3.7-3.3,3-5.8c0-0.1-0.1-0.3-0.1-0.4L85.7,81.9z"/>
		<path class="salt-pepper-2" d="M34.5,57.8L70,48.2c2.3-0.6,4.7,0.7,5.5,2.9l25.3,66.8c0.9,2.4-0.2,5.1-2.7,6.1c-0.1,0.1-0.3,0.1-0.4,0.1l-48.9,13.3c-2.5,0.6-5.1-0.9-5.7-3.4c0-0.1-0.1-0.3-0.1-0.4L31.2,63.1C30.8,60.7,32.2,58.4,34.5,57.8z"/>
		<line class="salt-pepper-3" x1="38.4" y1="58.5" x2="48.9" y2="121.8"/>
		<line class="salt-pepper-3" x1="67.8" y1="50.5" x2="89.9" y2="110.7"/>
		<line class="salt-pepper-3" x1="46.1" y1="56.3" x2="59.1" y2="126.3"/>
		<line class="salt-pepper-3" x1="60.3" y1="52.5" x2="83.4" y2="119.6"/>
		<line class="salt-pepper-3" x1="52.5" y1="54.6" x2="72.1" y2="126.5"/>
		<path class="salt-pepper-4" d="M42.1,15c-9.9,2.7-16.8,11.7-16.7,22c0,2.6,2.2,4.6,4.7,4.6c0.4,0,0.8-0.1,1.2-0.2l33.6-9.2c2.5-0.7,4-3.2,3.3-5.7c-0.1-0.4-0.3-0.8-0.5-1.2C62.5,16.6,52,12.3,42.1,15z"/>
		<ellipse transform="matrix(0.5821 -0.8131 0.8131 0.5821 -10.5079 36.7157)" class="salt-pepper-5" cx="30.5" cy="28.6" rx="2.5" ry="1.4"/>
		<ellipse transform="matrix(0.3922 -0.9199 0.9199 0.3922 15.1289 64.8149)" class="salt-pepper-5" cx="56.6" cy="21" rx="1.4" ry="2.5"/>
		<ellipse transform="matrix(0.8673 -0.4977 0.4977 0.8673 -8.8241 22.8792)" class="salt-pepper-5" cx="38.5" cy="28" rx="2.5" ry="2"/>
		<ellipse transform="matrix(0.8673 -0.4977 0.4977 0.8673 -5.9175 28.0537)" class="salt-pepper-5" cx="49.7" cy="25.1" rx="2.5" ry="2"/>
		<ellipse transform="matrix(0.5888 -0.8083 0.8083 0.5888 -14.6773 40.38)" class="salt-pepper-5" cx="32.3" cy="34.6" rx="1.8" ry="1"/>
		<ellipse transform="matrix(0.7387 -0.674 0.674 0.7387 -3.7747 45.9145)" class="salt-pepper-5" cx="57.3" cy="27.8" rx="1" ry="1.8"/>
		<ellipse transform="matrix(0.5886 -0.8084 0.8084 0.5886 -6.6497 49.2464)" class="salt-pepper-5" cx="45.1" cy="31.2" rx="1.8" ry="1.8"/>
		<ellipse transform="matrix(0.5886 -0.8084 0.8084 0.5886 -1.9011 45.2791)" class="salt-pepper-5" cx="43.5" cy="24.5" rx="1.4" ry="1.4"/>		
		<ellipse transform="matrix(0.5886 -0.8084 0.8084 0.5886 -13.3786 46.0177)" class="salt-pepper-5" cx="38.5" cy="36.2" rx="0.7" ry="0.7"/>
		<ellipse transform="matrix(0.5886 -0.8084 0.8084 0.5886 -4.2864 56.039)" class="salt-pepper-5" cx="52.9" cy="32.2" rx="0.7" ry="0.7"/>
		<ellipse transform="matrix(0.5886 -0.8084 0.8084 0.5886 3.6929 63.9179)" class="salt-pepper-5" cx="64.7" cy="28.3" rx="0.7" ry="0.7"/>
		<ellipse transform="matrix(0.5886 -0.8084 0.8084 0.5886 -19.6514 39.0885)" class="salt-pepper-5" cx="28.6" cy="38.9" rx="0.7" ry="0.7"/>
		<ellipse transform="matrix(8.924202e-02 -0.996 0.996 8.924202e-02 -11.2097 58.0885)" class="salt-pepper-5" cx="26.2" cy="35.2" rx="1.8" ry="1"/>
		<ellipse transform="matrix(0.8231 -0.5678 0.5678 0.8231 -1.752 41.1757)" class="salt-pepper-5" cx="65.2" cy="23.4" rx="1" ry="1.8"/>
		<ellipse transform="matrix(0.7811 -0.6244 0.6244 0.7811 -5.12 25.0695)" class="salt-pepper-5" cx="33.2" cy="19.8" rx="2.1" ry="1.1"/>
		<ellipse transform="matrix(0.1891 -0.982 0.982 0.1891 27.0094 61.5197)" class="salt-pepper-5" cx="50.8" cy="14.4" rx="1.4" ry="2.5"/>
		<ellipse transform="matrix(0.9976 -6.982913e-02 6.982913e-02 0.9976 -1.2472 3.3472)" class="salt-pepper-5" cx="47.3" cy="19.5" rx="2.5" ry="1.7"/>
		<ellipse transform="matrix(0.8673 -0.4977 0.4977 0.8673 -5.8261 21.9707)" class="salt-pepper-5" cx="38.3" cy="21.9" rx="2.5" ry="1.7"/>
		<ellipse transform="matrix(0.9731 -0.2306 0.2306 0.9731 -2.4591 9.9399)" class="salt-pepper-5" cx="41.3" cy="15.5" rx="2.5" ry="1.4"/>
	</g>
</svg>
