<svg xmlns="http://www.w3.org/2000/svg" viewBox="0 0 338.48 123.43"><defs><style>.sweet-potato-1,.sweet-potato-4{fill:#c6946b;}.sweet-potato-2{fill:#f7931e;}.sweet-potato-3{fill:#a67c52;}.sweet-potato-4,.sweet-potato-5{font-size:62.1px;font-family:Rochester-Regular, Rochester;}.sweet-potato-5{fill:#fff1dd;}</style></defs><g id="Layer_2" data-name="Layer 2"><g id="Layer_1-2" data-name="Layer 1"><path class="sweet-potato-1" d="M83.49,59.28l-8.32-17.2h0c-3.48-6-19.48-25.42-34.18-38A17.18,17.18,0,0,0,15.05,8.42C8.4,19.87,6.65,35.44,2,50.06A29.32,29.32,0,0,0,.63,57.73L0,71.64a27.47,27.47,0,0,0,2.7,13.13L8,95.75Z"/><path class="sweet-potato-2" d="M21.37,101.05c-6.59,0-11.08-1.8-12.66-5.06C4.85,88,18.43,73.41,39,63.48,50.27,58,61.79,54.9,70.6,54.9c6.59,0,11.08,1.79,12.66,5.05,3.86,8-9.72,22.58-30.27,32.51C41.7,97.92,30.18,101.05,21.37,101.05Z"/><path class="sweet-potato-3" d="M70.6,54.4v1c6.38,0,10.72,1.69,12.21,4.77,1.71,3.55-.4,8.94-5.78,14.8-5.68,6.17-14.29,12.22-24.26,17-11.22,5.42-22.66,8.53-31.4,8.53-6.38,0-10.72-1.69-12.21-4.77-1.71-3.54.4-8.94,5.78-14.79C20.62,74.8,29.23,68.75,39.2,63.93c11.22-5.42,22.66-8.53,31.4-8.53v-1m0,0c-8.53,0-20.07,2.94-31.84,8.63C17.93,73.1,4.27,88,8.26,96.2c1.74,3.6,6.53,5.34,13.11,5.34,8.53,0,20.07-2.94,31.84-8.63C74,82.84,87.7,68,83.71,59.74,82,56.14,77.18,54.4,70.6,54.4Z"/><path class="sweet-potato-1" d="M52.32,110.07c-17,0-31.17-5.36-31.66-11.95l0-.31V83.93H84v14l0,.18C83.48,104.71,69.28,110.07,52.32,110.07Z"/><path class="sweet-potato-3" d="M83.5,84.43V97.8l0,.29c-.22,2.88-3.53,5.77-9.1,7.93-5.92,2.29-13.76,3.55-22.06,3.55S36.17,108.31,30.25,106c-5.56-2.16-8.88-5-9.09-7.93l0-.22V84.43H83.5m1-1H20.13V98.16h0c.51,6.89,14.71,12.41,32.16,12.41S84,105.05,84.48,98.16h0V83.43Z"/><path class="sweet-potato-2" d="M52.32,95.33c-17.47,0-31.69-5.51-31.69-12.29s14.22-12.3,31.69-12.3S84,76.26,84,83,69.79,95.33,52.32,95.33Z"/><path class="sweet-potato-3" d="M52.32,71.24c16.9,0,31.18,5.41,31.18,11.8s-14.28,11.8-31.18,11.8S21.13,89.43,21.13,83s14.28-11.8,31.19-11.8m0-1C34.54,70.24,20.13,76,20.13,83s14.41,12.8,32.19,12.8S84.5,90.11,84.5,83s-14.41-12.8-32.18-12.8Z"/><path class="sweet-potato-1" d="M88.51,110.66a65.85,65.85,0,0,1-21-4C51.5,101,39.88,91.21,41.61,84.83l.08-.29,4.61-13.1L106.07,92.5l-4.66,13.22-.09.16C100,108.92,95.32,110.66,88.51,110.66Z"/><path class="sweet-potato-3" d="M46.61,72.07l58.82,20.74L101,105.42l-.11.26c-1.25,2.85-5.75,4.47-12.36,4.47a65.31,65.31,0,0,1-20.85-4C59.83,103.39,52.86,99.6,48,95.46c-4.53-3.87-6.7-7.7-5.94-10.5l0-.21,4.47-12.68M46,70.8,41.1,84.69h0c-1.8,6.67,9.75,16.6,26.21,22.4a66,66,0,0,0,21.18,4.05c6.82,0,11.8-1.71,13.27-5.06h0L106.7,92.2,46,70.8Z"/><path class="sweet-potato-2" d="M93.42,96.76a65.87,65.87,0,0,1-21-4c-8-2.84-15.17-6.75-20-11s-6.8-8.11-5.74-11.12c1.14-3.24,5.86-5.1,12.94-5.1a65.91,65.91,0,0,1,21,4c16.47,5.8,28.05,15.73,25.79,22.13C105.22,94.9,100.5,96.76,93.42,96.76Z"/><path class="sweet-potato-3" d="M59.54,66h0A65.35,65.35,0,0,1,80.4,70C96.34,75.63,108,85.47,105.89,91.5c-1.07,3-5.61,4.76-12.47,4.76a65.32,65.32,0,0,1-20.86-4c-15.94-5.62-27.62-15.47-25.49-21.5,1.07-3,5.61-4.76,12.47-4.76m0-1c-7,0-12.15,1.84-13.41,5.43-2.35,6.67,9.33,16.86,26.1,22.77a66.05,66.05,0,0,0,21.19,4.06c7.06,0,12.15-1.83,13.41-5.43,2.35-6.66-9.33-16.86-26.1-22.77A66.05,66.05,0,0,0,59.54,65Z"/><text class="sweet-potato-4" transform="translate(125.13 55.41)">Sweet <tspan x="0" y="52" xml:space="preserve">     Potato</tspan></text><text class="sweet-potato-5" transform="translate(19.87 55.41)">1</text></g></g></svg>