<?xml version="1.0" encoding="utf-8"?>
<!-- Generator: Adobe Illustrator 24.2.3, SVG Export Plug-In . SVG Version: 6.00 Build 0)  -->
<svg version="1.1" id="Layer_1" xmlns="http://www.w3.org/2000/svg" xmlns:xlink="http://www.w3.org/1999/xlink" x="0px" y="0px"
	 viewBox="0 0 150 150" style="enable-background:new 0 0 150 150;" xml:space="preserve">
<style type="text/css">
	.sweet-potato-0{fill:#C6946B;}
	.sweet-potato-1{fill:#F7931E;}
	.sweet-potato-2{fill:#A67C52;}
</style>
	<path class="sweet-potato-0" d="M104.9,78.7l-8.3-17.2l0,0c-3.5-6-19.5-25.4-34.2-38c-7.2-6.2-18.1-5.3-24.2,1.9c-0.6,0.8-1.2,1.6-1.7,2.4c-6.6,11.5-8.4,27-13,41.6c-0.8,2.5-1.3,5.1-1.4,7.7l-0.6,13.9c-0.2,4.5,0.7,9,2.7,13.1l5.3,11L104.9,78.7z"/>
	<path class="sweet-potato-1" d="M42.8,120.5c-6.6,0-11.1-1.8-12.7-5.1c-3.9-8,9.7-22.6,30.3-32.5c11.3-5.5,22.8-8.6,31.6-8.6c6.6,0,11.1,1.8,12.7,5c3.9,8-9.7,22.6-30.3,32.5C63.1,117.4,51.6,120.5,42.8,120.5z"/>
	<path class="sweet-potato-2" d="M92,73.8v1c6.4,0,10.7,1.7,12.2,4.8c1.7,3.6-0.4,8.9-5.8,14.8c-5.7,6.2-14.3,12.2-24.3,17c-11.2,5.4-22.7,8.5-31.4,8.5c-6.4,0-10.7-1.7-12.2-4.8c-1.7-3.5,0.4-8.9,5.8-14.8c5.7-6.1,14.3-12.2,24.3-17C71.9,78,83.3,74.8,92,74.8V73.8 M92,73.8c-8.5,0-20.1,2.9-31.8,8.6c-20.8,10.1-34.5,25-30.5,33.2c1.7,3.6,6.5,5.3,13.1,5.3c8.5,0,20.1-2.9,31.8-8.6c20.8-10.1,34.5-24.9,30.5-33.2C103.4,75.6,98.6,73.8,92,73.8z"/>
	<path class="sweet-potato-0" d="M73.8,129.5c-17,0-31.2-5.4-31.7-11.9v-0.3v-13.9h63.3v14v0.2C104.9,124.2,90.7,129.5,73.8,129.5z"/>
	<path class="sweet-potato-2" d="M104.9,103.9v13.4v0.3c-0.2,2.9-3.5,5.8-9.1,7.9c-5.9,2.3-13.8,3.5-22.1,3.5s-16.2-1.3-22.1-3.6c-5.6-2.2-8.9-5-9.1-7.9v-0.2v-13.4H104.9 M105.9,102.9H41.6v14.7l0,0c0.5,6.9,14.7,12.4,32.2,12.4s31.7-5.5,32.2-12.4l0,0L105.9,102.9L105.9,102.9z"/>
	<path class="sweet-potato-1" d="M73.8,114.8c-17.5,0-31.7-5.5-31.7-12.3s14.2-12.3,31.7-12.3s31.7,5.5,31.7,12.3S91.2,114.8,73.8,114.8z"/>
	<path class="sweet-potato-2" d="M73.8,90.7c16.9,0,31.2,5.4,31.2,11.8s-14.3,11.8-31.2,11.8s-31.2-5.4-31.2-11.8S56.9,90.6,73.8,90.7M73.8,89.6c-17.8,0-32.2,5.8-32.2,12.8s14.4,12.8,32.2,12.8s32.2-5.7,32.2-12.8S91.5,89.6,73.8,89.6z"/>
	<path class="sweet-potato-0" d="M110,130.1c-7.2-0.2-14.3-1.5-21-4c-16-5.7-27.6-15.5-25.9-21.8l0.1-0.3l4.6-13.1l59.8,21.1l-4.7,13.2l-0.1,0.2C121.4,128.4,116.8,130.1,110,130.1z"/>
	<path class="sweet-potato-2" d="M68.1,91.5l58.8,20.7l-4.4,12.6l-0.1,0.3c-1.2,2.8-5.8,4.5-12.4,4.5c-7.1-0.2-14.2-1.5-20.8-4c-7.8-2.8-14.8-6.6-19.7-10.7c-4.5-3.9-6.7-7.7-5.9-10.5v-0.2L68.1,91.5 M67.4,90.2l-4.9,13.9l0,0c-1.8,6.7,9.7,16.6,26.2,22.4c6.8,2.5,13.9,3.9,21.2,4.1c6.8,0,11.8-1.7,13.3-5.1l0,0l4.9-13.9L67.4,90.2z"/>
	<path class="sweet-potato-1" d="M114.9,116.2c-7.2-0.2-14.3-1.5-21-4c-8-2.8-15.2-6.8-20-11s-6.8-8.1-5.7-11.1C69.3,86.8,74,85,81.1,85c7.2,0.2,14.3,1.5,21,4c16.5,5.8,28.1,15.7,25.8,22.1C126.7,114.3,121.9,116.2,114.9,116.2z"/>
	<path class="sweet-potato-2" d="M81,85.4L81,85.4c7.1,0.2,14.2,1.5,20.9,4c15.9,5.6,27.6,15.5,25.5,21.5c-1.1,3-5.6,4.8-12.5,4.8c-7.1-0.2-14.2-1.5-20.9-4c-15.9-5.6-27.6-15.5-25.5-21.5C69.6,87.2,74.1,85.4,81,85.4 M81,84.4c-7,0-12.2,1.8-13.4,5.4c-2.3,6.7,9.3,16.9,26.1,22.8c6.8,2.5,14,3.9,21.2,4.1c7.1,0,12.2-1.8,13.4-5.4c2.3-6.7-9.3-16.9-26.1-22.8C95.4,86,88.2,84.6,81,84.4z"/>
</svg>
